<svg xmlns="http://www.w3.org/2000/svg" viewBox="0 0 24 24">
  <!-- Top half of the Pokéball (Red) -->
  <path d="M12,2A10,10 0 0,1 22,12A10,10 0 0,1 12,22A10,10 0 0,1 2,12A10,10 0 0,1 12,2M12,4C7.92,4 4.55,7.05 4.06,11H8.13C8.57,9.27 10.14,8 12,8C13.86,8 15.43,9.27 15.87,11H19.94C19.45,7.05 16.08,4 12,4" fill="#FF0000" />
  
  <!-- Bottom half of the Pokéball (White) -->
  <path d="M12,20C16.08,20 19.45,16.95 19.94,13H15.87C15.43,14.73 13.86,16 12,16C10.14,16 8.57,14.73 8.13,13H4.06C4.55,16.95 7.92,20 12,20" fill="#FFFFFF" />
  
  <!-- The middle dividing circle (Black) -->
  <circle cx="12" cy="12" r="1.5" fill="#FFFFFF" />
  
  <!-- Center button (White) -->
  <circle cx="12" cy="12" r="0.75" fill="#FFFFFF" />
</svg>
